<mxfile>
    <diagram id="kgB1ClSXhv1oSVVSdbCW" name="Page-1">
        <mxGraphModel dx="2552" dy="2085" grid="1" gridSize="10" guides="1" tooltips="1" connect="1" arrows="1" fold="1" page="1" pageScale="1" pageWidth="850" pageHeight="1100" math="0" shadow="0">
            <root>
                <mxCell id="0"/>
                <mxCell id="1" parent="0"/>
                <mxCell id="93" value="" style="rounded=0;whiteSpace=wrap;html=1;" vertex="1" parent="1">
                    <mxGeometry x="-110" y="80" width="410" height="400" as="geometry"/>
                </mxCell>
                <mxCell id="92" value="" style="rounded=0;whiteSpace=wrap;html=1;" vertex="1" parent="1">
                    <mxGeometry x="370" y="120" width="330" height="360" as="geometry"/>
                </mxCell>
                <mxCell id="91" value="" style="rounded=0;whiteSpace=wrap;html=1;" vertex="1" parent="1">
                    <mxGeometry x="460" y="230" width="210" height="210" as="geometry"/>
                </mxCell>
                <mxCell id="37" value="&lt;h1&gt;Deployment Flow&lt;/h1&gt;&lt;div&gt;1.) User creates the Kind Cluster&lt;/div&gt;&lt;div&gt;2.) User initializes the CAPI Cluster&lt;/div&gt;&lt;div&gt;3.) User create a cluster definition using the CAPI Quickstart flavor&lt;/div&gt;&lt;div&gt;4.) User applies the cluster definition to teh CAPI Cluster&lt;/div&gt;&lt;div&gt;5.) CAPI Cluster creates Azure Resources&lt;/div&gt;&lt;div&gt;6.) CAPI runs Kubeadm to bootstrap the cluster&lt;/div&gt;" style="text;html=1;strokeColor=none;fillColor=none;spacing=5;spacingTop=-20;whiteSpace=wrap;overflow=hidden;rounded=0;" vertex="1" parent="1">
                    <mxGeometry x="755" y="450" width="520" height="140" as="geometry"/>
                </mxCell>
                <mxCell id="39" value="= Resource Group" style="text;html=1;align=center;verticalAlign=middle;resizable=0;points=[];autosize=1;" vertex="1" parent="1">
                    <mxGeometry x="840" y="80" width="110" height="20" as="geometry"/>
                </mxCell>
                <mxCell id="44" value="&amp;nbsp;= Azure Resource Provider" style="text;html=1;align=center;verticalAlign=middle;resizable=0;points=[];autosize=1;" vertex="1" parent="1">
                    <mxGeometry x="833.13" y="146" width="160" height="20" as="geometry"/>
                </mxCell>
                <mxCell id="45" value="= Kubernetes API" style="text;html=1;align=center;verticalAlign=middle;resizable=0;points=[];autosize=1;" vertex="1" parent="1">
                    <mxGeometry x="840" y="210" width="110" height="20" as="geometry"/>
                </mxCell>
                <mxCell id="46" value="= Docker" style="text;html=1;align=center;verticalAlign=middle;resizable=0;points=[];autosize=1;" vertex="1" parent="1">
                    <mxGeometry x="840" y="262" width="60" height="20" as="geometry"/>
                </mxCell>
                <mxCell id="47" value="= Shell" style="text;html=1;align=center;verticalAlign=middle;resizable=0;points=[];autosize=1;" vertex="1" parent="1">
                    <mxGeometry x="840" y="326" width="50" height="20" as="geometry"/>
                </mxCell>
                <mxCell id="52" value="K8S Nodes" style="aspect=fixed;html=1;points=[];align=center;image;fontSize=12;image=img/lib/azure2/compute/VM_Scale_Sets.svg;" vertex="1" parent="1">
                    <mxGeometry x="530" y="302" width="68" height="68" as="geometry"/>
                </mxCell>
                <mxCell id="53" value="" style="aspect=fixed;html=1;points=[];align=center;image;fontSize=12;image=img/lib/azure2/compute/VM_Scale_Sets.svg;" vertex="1" parent="1">
                    <mxGeometry x="780" y="-2" width="50" height="50" as="geometry"/>
                </mxCell>
                <mxCell id="54" value="= VM Scale Set" style="text;html=1;align=center;verticalAlign=middle;resizable=0;points=[];autosize=1;" vertex="1" parent="1">
                    <mxGeometry x="830" y="13" width="100" height="20" as="geometry"/>
                </mxCell>
                <mxCell id="59" value="&lt;font style=&quot;font-size: 48px&quot;&gt;CAPI/CAPZ&lt;/font&gt;" style="text;html=1;align=center;verticalAlign=middle;resizable=0;points=[];autosize=1;" vertex="1" parent="1">
                    <mxGeometry x="250" y="-105" width="270" height="30" as="geometry"/>
                </mxCell>
                <mxCell id="60" value="&lt;font style=&quot;font-size: 24px&quot;&gt;LEGEND&lt;/font&gt;" style="text;html=1;align=center;verticalAlign=middle;resizable=0;points=[];autosize=1;" vertex="1" parent="1">
                    <mxGeometry x="790" y="-110" width="110" height="20" as="geometry"/>
                </mxCell>
                <mxCell id="64" value="&lt;h1&gt;&lt;span&gt;Scenarios&lt;/span&gt;&lt;/h1&gt;&lt;h1&gt;&lt;span style=&quot;font-size: 12px ; font-weight: normal&quot;&gt;1.) Manage your Kubernetes clusters just like Kubernetes resources (declaratively)&lt;/span&gt;&lt;/h1&gt;" style="text;html=1;strokeColor=none;fillColor=none;spacing=5;spacingTop=-20;whiteSpace=wrap;overflow=hidden;rounded=0;" vertex="1" parent="1">
                    <mxGeometry x="755" y="620" width="520" height="190" as="geometry"/>
                </mxCell>
                <mxCell id="86" style="edgeStyle=orthogonalEdgeStyle;rounded=0;orthogonalLoop=1;jettySize=auto;html=1;entryX=0;entryY=0.5;entryDx=0;entryDy=0;" edge="1" parent="1" source="73" target="85">
                    <mxGeometry relative="1" as="geometry">
                        <Array as="points">
                            <mxPoint x="330" y="218"/>
                            <mxPoint x="330" y="123"/>
                        </Array>
                    </mxGeometry>
                </mxCell>
                <mxCell id="87" value="5.) Create Azure Resources&lt;br&gt;6.) Run K8S on Nodes" style="edgeLabel;html=1;align=left;verticalAlign=middle;resizable=0;points=[];" vertex="1" connectable="0" parent="86">
                    <mxGeometry x="0.1311" y="-2" relative="1" as="geometry">
                        <mxPoint x="-52" y="-7.17" as="offset"/>
                    </mxGeometry>
                </mxCell>
                <mxCell id="76" style="edgeStyle=orthogonalEdgeStyle;rounded=0;orthogonalLoop=1;jettySize=auto;html=1;entryX=-0.029;entryY=0.42;entryDx=0;entryDy=0;entryPerimeter=0;" edge="1" parent="1" source="75" target="65">
                    <mxGeometry relative="1" as="geometry">
                        <Array as="points">
                            <mxPoint x="-6" y="105.5"/>
                            <mxPoint x="78" y="105.5"/>
                        </Array>
                    </mxGeometry>
                </mxCell>
                <mxCell id="77" value="1.) kind create cluster" style="edgeLabel;html=1;align=center;verticalAlign=middle;resizable=0;points=[];" vertex="1" connectable="0" parent="76">
                    <mxGeometry x="-0.5668" y="3" relative="1" as="geometry">
                        <mxPoint x="3" y="-83.33" as="offset"/>
                    </mxGeometry>
                </mxCell>
                <mxCell id="79" style="edgeStyle=orthogonalEdgeStyle;rounded=0;orthogonalLoop=1;jettySize=auto;html=1;" edge="1" parent="1" source="75" target="73">
                    <mxGeometry relative="1" as="geometry"/>
                </mxCell>
                <mxCell id="80" value="2.) clusterctl init&lt;br&gt;3.) clusterctl config cluster capi-quickstart&lt;br&gt;4.) kubectl apply -f capi-quickstart.yaml" style="edgeLabel;html=1;align=left;verticalAlign=middle;resizable=0;points=[];" vertex="1" connectable="0" parent="79">
                    <mxGeometry x="-0.242" y="-1" relative="1" as="geometry">
                        <mxPoint x="-77.17" y="5" as="offset"/>
                    </mxGeometry>
                </mxCell>
                <mxCell id="75" value="" style="aspect=fixed;html=1;points=[];align=center;image;fontSize=12;image=img/lib/azure2/preview/Azure_Cloud_Shell.svg;" vertex="1" parent="1">
                    <mxGeometry x="-40" y="327.5" width="68" height="48" as="geometry"/>
                </mxCell>
                <mxCell id="85" value="" style="shape=image;verticalLabelPosition=bottom;labelBackgroundColor=#ffffff;verticalAlign=top;aspect=fixed;imageAspect=0;image=https://www.vaisulweb.com/wp-content/uploads/2019/02/azure_logo_794_new.png;" vertex="1" parent="1">
                    <mxGeometry x="350" y="97.5" width="50" height="50" as="geometry"/>
                </mxCell>
                <mxCell id="88" value="capi-quickstart" style="aspect=fixed;html=1;points=[];align=center;image;fontSize=12;image=img/lib/azure2/general/Resource_Groups.svg;" vertex="1" parent="1">
                    <mxGeometry x="425" y="198" width="68" height="64" as="geometry"/>
                </mxCell>
                <mxCell id="89" value="capi-quickstart" style="aspect=fixed;html=1;points=[];align=center;image;fontSize=12;image=img/lib/azure2/general/Resource_Groups.svg;" vertex="1" parent="1">
                    <mxGeometry x="780" y="370" width="53.13" height="50" as="geometry"/>
                </mxCell>
                <mxCell id="90" value="= Resource Group" style="text;html=1;align=center;verticalAlign=middle;resizable=0;points=[];autosize=1;" vertex="1" parent="1">
                    <mxGeometry x="833.13" y="385" width="110" height="20" as="geometry"/>
                </mxCell>
                <mxCell id="95" value="" style="points=[];aspect=fixed;html=1;align=center;shadow=0;dashed=0;image;image=img/lib/allied_telesis/computer_and_terminals/Server_Desktop.svg;" vertex="1" parent="1">
                    <mxGeometry x="-130" y="60" width="42.599999999999994" height="54" as="geometry"/>
                </mxCell>
                <mxCell id="96" value="" style="rounded=0;whiteSpace=wrap;html=1;" vertex="1" parent="1">
                    <mxGeometry x="100" y="110" width="170" height="194" as="geometry"/>
                </mxCell>
                <mxCell id="73" value="" style="strokeColor=#dddddd;shadow=1;strokeWidth=1;rounded=1;absoluteArcSize=1;arcSize=2;" vertex="1" parent="1">
                    <mxGeometry x="117.5" y="188" width="135" height="60" as="geometry"/>
                </mxCell>
                <mxCell id="74" value="CAPI&lt;br&gt;CAPZ" style="dashed=0;connectable=0;html=1;fillColor=#5184F3;strokeColor=none;shape=mxgraph.gcp2.kubernetes_logo;part=1;labelPosition=right;verticalLabelPosition=middle;align=left;verticalAlign=middle;spacingLeft=5;fontColor=#999999;fontSize=12;" vertex="1" parent="73">
                    <mxGeometry width="45" height="43.65" relative="1" as="geometry">
                        <mxPoint x="5" y="7.675000000000001" as="offset"/>
                    </mxGeometry>
                </mxCell>
                <mxCell id="65" value="" style="aspect=fixed;html=1;points=[];align=center;image;fontSize=12;image=img/lib/mscae/Docker.svg;" vertex="1" parent="1">
                    <mxGeometry x="80" y="87.5" width="53.66" height="44" as="geometry"/>
                </mxCell>
                <mxCell id="97" value="" style="aspect=fixed;html=1;points=[];align=center;image;fontSize=12;image=img/lib/azure2/general/Resource_Groups.svg;" vertex="1" parent="1">
                    <mxGeometry x="774.69" y="62.5" width="58.44" height="55" as="geometry"/>
                </mxCell>
                <mxCell id="98" value="" style="shape=image;verticalLabelPosition=bottom;labelBackgroundColor=#ffffff;verticalAlign=top;aspect=fixed;imageAspect=0;image=https://www.vaisulweb.com/wp-content/uploads/2019/02/azure_logo_794_new.png;" vertex="1" parent="1">
                    <mxGeometry x="783.13" y="131" width="50" height="50" as="geometry"/>
                </mxCell>
                <mxCell id="99" value="" style="aspect=fixed;html=1;points=[];align=center;image;fontSize=12;image=img/lib/mscae/Kubernetes.svg;" vertex="1" parent="1">
                    <mxGeometry x="783.13" y="196" width="50" height="48" as="geometry"/>
                </mxCell>
                <mxCell id="100" value="" style="aspect=fixed;html=1;points=[];align=center;image;fontSize=12;image=img/lib/mscae/Docker.svg;" vertex="1" parent="1">
                    <mxGeometry x="779.74" y="250" width="53.66" height="44" as="geometry"/>
                </mxCell>
                <mxCell id="101" value="" style="aspect=fixed;html=1;points=[];align=center;image;fontSize=12;image=img/lib/azure2/preview/Azure_Cloud_Shell.svg;" vertex="1" parent="1">
                    <mxGeometry x="779.74" y="317" width="51" height="36" as="geometry"/>
                </mxCell>
                <mxCell id="102" value="" style="points=[];aspect=fixed;html=1;align=center;shadow=0;dashed=0;image;image=img/lib/allied_telesis/computer_and_terminals/Server_Desktop.svg;" vertex="1" parent="1">
                    <mxGeometry x="782.61" y="-70" width="42.599999999999994" height="54" as="geometry"/>
                </mxCell>
                <mxCell id="103" value="= User Desktop" style="text;html=1;align=center;verticalAlign=middle;resizable=0;points=[];autosize=1;" vertex="1" parent="1">
                    <mxGeometry x="838.13" y="-53" width="100" height="20" as="geometry"/>
                </mxCell>
            </root>
        </mxGraphModel>
    </diagram>
</mxfile>